<svg width="270" height="50" viewBox="0 0 270 50" fill="none" xmlns="http://www.w3.org/2000/svg">
<g clip-path="url(#clip0_64_866)">
<path d="M205.651 0H0V50H205.651V0Z" fill="black"/>
<path d="M43.1719 36.6432L41.7113 33.133H31.1951L29.7344 36.6432H24.0892L35.5988 9.18897H37.3588L48.8317 36.6432H43.1719ZM39.8929 28.5981L36.4605 19.4824L33.028 28.5981H39.8929ZM51.2271 27.7339V16.4158H56.4925V28.1851C56.4599 28.6989 56.5316 29.2141 56.7028 29.6968C56.874 30.1795 57.1408 30.6187 57.4857 30.9857C57.8306 31.3527 58.2458 31.639 58.704 31.8259C59.1622 32.0128 59.6529 32.096 60.1441 32.07C60.6201 32.0851 61.0942 31.9987 61.5373 31.8159C61.9805 31.6332 62.3836 31.358 62.722 31.007C63.0649 30.6325 63.3327 30.1899 63.5095 29.7052C63.6864 29.2205 63.7687 28.7037 63.7517 28.1851V16.4158H69.0171V27.7339C69.0632 28.9863 68.8619 30.2352 68.4258 31.4024C67.9897 32.5696 67.3284 33.63 66.483 34.5172C65.6552 35.3821 64.6669 36.0604 63.5793 36.5102C62.4916 36.96 61.3274 37.1718 60.1586 37.1326C58.9652 37.1993 57.7718 37.0015 56.6563 36.5521C55.541 36.1028 54.5287 35.412 53.6856 34.5249C52.8427 33.6378 52.188 32.5744 51.7643 31.4042C51.3407 30.234 51.1576 28.9833 51.2271 27.7339ZM86.4639 32.0547V36.6432C85.2708 36.9641 84.0443 37.1285 82.8125 37.1326C80.3441 37.1326 78.4331 36.4928 77.0796 35.2131C75.7262 33.9335 75.0688 32.0394 75.1078 29.5311V21.0807H72.0625V16.4158H75.1078V11.315H80.3733V16.4158H85.8359V21.0807H80.3733V29.0417C80.3315 29.4885 80.3831 29.9394 80.5243 30.3633C80.6656 30.7872 80.8931 31.1738 81.1912 31.4965C82.0228 32.0296 82.9943 32.2732 83.9663 32.1924C84.4045 32.1924 85.2371 32.1389 86.4639 32.0547ZM88.8156 26.541C88.7784 25.1413 89.027 23.7494 89.5447 22.4583C90.0623 21.1672 90.8369 20.0067 91.8171 19.0541C93.7987 17.0894 96.4239 15.9944 99.1528 15.9944C101.882 15.9944 104.507 17.0894 106.488 19.0541C107.479 19.9983 108.264 21.1553 108.788 22.4461C109.313 23.737 109.565 25.1311 109.527 26.5333C109.564 27.941 109.311 29.3405 108.787 30.6374C108.263 31.9342 107.479 33.0982 106.488 34.0507C105.523 35.0595 104.371 35.8512 103.102 36.3772C101.834 36.9032 100.476 37.1525 99.1127 37.1097C97.7603 37.151 96.4141 36.9008 95.1577 36.3746C93.9015 35.8484 92.7619 35.0574 91.8098 34.0507C90.8318 33.0854 90.0597 31.9148 89.5437 30.6154C89.0277 29.316 88.7796 27.9171 88.8156 26.5104V26.541ZM102.691 30.5023C103.175 29.9857 103.555 29.3718 103.805 28.6974C104.056 28.0231 104.174 27.3025 104.152 26.5792C104.169 25.8507 104.049 25.1258 103.798 24.4461C103.548 23.7663 103.171 23.145 102.691 22.6178C102.23 22.1152 101.676 21.7154 101.062 21.4423C100.449 21.1692 99.7898 21.0284 99.1236 21.0284C98.4575 21.0284 97.7982 21.1692 97.1852 21.4423C96.5722 21.7154 96.0181 22.1152 95.5562 22.6178C94.6078 23.6928 94.1038 25.1167 94.154 26.5792C94.1064 28.0298 94.6107 29.4409 95.5562 30.5023C96.0238 30.9946 96.5796 31.3852 97.1919 31.6518C97.8041 31.9184 98.4606 32.0556 99.1236 32.0556C99.7867 32.0556 100.443 31.9184 101.055 31.6518C101.668 31.3852 102.224 30.9946 102.691 30.5023ZM131.348 19.0312C133.161 21.0646 134.131 23.768 134.042 26.5486C134.121 29.3527 133.154 32.0786 131.348 34.1501C130.513 35.1355 129.484 35.9194 128.331 36.4475C127.179 36.9756 125.93 37.2355 124.673 37.2091C123.6 37.2605 122.529 37.0685 121.533 36.6461C120.537 36.2237 119.64 35.581 118.903 34.7619V44H113.638V16.4158H118.473V18.9547C119.802 16.9664 121.868 15.9722 124.673 15.9722C125.929 15.9384 127.178 16.191 128.331 16.7126C129.486 17.2342 130.517 18.0123 131.356 18.993L131.348 19.0312ZM128.697 26.5868C128.733 25.8434 128.626 25.1 128.385 24.4001C128.143 23.7002 127.769 23.0579 127.287 22.5108C126.828 22.0043 126.27 21.6061 125.651 21.3424C125.033 21.0787 124.369 20.9556 123.702 20.9813C123.051 20.9637 122.404 21.0855 121.8 21.3393C121.196 21.5931 120.648 21.9736 120.189 22.4572C119.714 23.009 119.349 23.6542 119.114 24.3553C118.88 25.0565 118.781 25.7994 118.823 26.541C118.743 28.0519 119.234 29.5354 120.189 30.6706C120.648 31.1529 121.197 31.5319 121.801 31.7843C122.404 32.0368 123.052 32.1575 123.702 32.1389C124.376 32.1559 125.044 32.0205 125.663 31.742C126.282 31.4636 126.836 31.0485 127.287 30.5253C127.764 29.994 128.135 29.3688 128.377 28.6861C128.621 28.0033 128.732 27.2767 128.705 26.5486L128.697 26.5868ZM154.367 24.6673V36.6432H149.525V34.6854C148.76 35.5012 147.841 36.1403 146.826 36.5617C145.811 36.9832 144.723 37.1776 143.632 37.1326C141.866 37.2249 140.13 36.6281 138.761 35.4578C138.172 34.9125 137.705 34.2376 137.395 33.4813C137.084 32.7251 136.937 31.9062 136.964 31.0835C136.932 30.2564 137.093 29.4336 137.433 28.6862C137.772 27.9387 138.281 27.2891 138.914 26.7933C140.478 25.6486 142.36 25.0785 144.267 25.1721H149.101V24.3079C149.134 23.8272 149.068 23.3447 148.907 22.8933C148.746 22.442 148.493 22.0324 148.167 21.6925C147.811 21.3618 147.396 21.1083 146.946 20.9468C146.496 20.7854 146.02 20.7191 145.545 20.7519C144.636 20.7372 143.736 20.9606 142.93 21.4019C141.996 21.968 141.153 22.6856 140.433 23.5279L137.702 20.1401C138.707 18.8244 139.986 17.7669 141.442 17.0485C142.898 16.3301 144.491 15.9698 146.1 15.9952C147.198 15.9375 148.297 16.1108 149.33 16.5049C150.364 16.8989 151.311 17.5057 152.117 18.2894C153.617 19.7679 154.37 21.8811 154.375 24.6291L154.367 24.6673ZM149.094 29.1258V28.8428H144.961C143.164 28.8428 142.266 29.5234 142.266 30.8847C142.255 31.1976 142.315 31.5088 142.442 31.7922C142.569 32.0756 142.759 32.323 142.997 32.5136C143.6 32.9211 144.309 33.1215 145.026 33.0871C146.101 33.1389 147.151 32.743 147.948 31.9859C148.325 31.6159 148.623 31.1661 148.822 30.6665C149.021 30.1668 149.116 29.6287 149.101 29.0875L149.094 29.1258ZM171.295 16.454V21.3178H169.893C168.499 21.2373 167.129 21.722 166.066 22.6714C165.588 23.1868 165.22 23.8019 164.985 24.4766C164.749 25.1513 164.653 25.8703 164.701 26.5868V36.6432H159.42V16.4158H164.255V18.8324C164.877 17.9808 165.682 17.2955 166.604 16.8329C167.527 16.3703 168.541 16.1435 169.565 16.1711C170.152 16.1606 170.738 16.2431 171.302 16.4158L171.295 16.454ZM193.606 36.6432H187.596L179.869 25.4474V36.6432H174.604V6H179.869V25.0421L186.814 16.4158H193.015L185.755 25.3633L193.606 36.6432Z" fill="white"/>
<path d="M269.889 0H205.651V50H269.889V0Z" fill="#DA2025"/>
<path d="M217.709 26.1609V14.9296H223.125V26.6087C223.102 27.1226 223.183 27.6358 223.362 28.1172C223.542 28.5986 223.816 29.038 224.169 29.4089C224.535 29.7552 224.965 30.0252 225.434 30.2036C225.903 30.382 226.403 30.4652 226.903 30.4486C227.392 30.4634 227.878 30.3775 228.333 30.1962C228.787 30.0148 229.201 29.7418 229.547 29.3937C229.897 29.0208 230.17 28.581 230.349 28.1001C230.529 27.6192 230.611 27.107 230.592 26.5935V14.9296H236.007V26.1609C236.056 27.4039 235.851 28.6437 235.402 29.8022C234.953 30.9607 234.272 32.0128 233.401 32.8921C232.55 33.7498 231.536 34.4226 230.418 34.8689C229.3 35.3153 228.105 35.5258 226.903 35.4875C225.676 35.5536 224.448 35.3573 223.3 34.9114C222.153 34.4656 221.111 33.7802 220.244 32.9C219.375 32.0199 218.701 30.9648 218.264 29.8035C217.828 28.6423 217.639 27.4011 217.709 26.1609ZM257.844 23.0799V35.0018H252.871V33.0591C252.083 33.867 251.137 34.5002 250.093 34.9183C249.049 35.3364 247.931 35.5303 246.809 35.4875C244.99 35.5788 243.204 34.9867 241.792 33.8256C241.185 33.2844 240.706 32.6146 240.386 31.8642C240.067 31.1138 239.916 30.3012 239.944 29.4848C239.911 28.664 240.076 27.8476 240.425 27.1058C240.775 26.3641 241.298 25.7195 241.949 25.2275C243.556 24.0932 245.489 23.5276 247.447 23.6187H252.428V22.7612C252.46 22.2843 252.392 21.8059 252.225 21.3582C252.06 20.9106 251.801 20.504 251.466 20.1658C251.096 19.8333 250.662 19.5793 250.193 19.4189C249.723 19.2586 249.226 19.1952 248.732 19.2324C247.797 19.2188 246.872 19.4405 246.043 19.8775C245.084 20.4427 244.218 21.1544 243.474 21.9871L240.672 18.6253C241.709 17.3156 243.03 16.2638 244.533 15.5507C246.036 14.8376 247.68 14.4824 249.34 14.5122C250.476 14.4509 251.611 14.6209 252.679 15.012C253.748 15.4031 254.727 16.0074 255.561 16.7888C257.087 18.256 257.849 20.353 257.844 23.0799ZM252.428 27.5041V27.2613H248.176C246.328 27.2613 245.405 27.9367 245.405 29.2875C245.393 29.598 245.455 29.9068 245.586 30.1881C245.716 30.4693 245.912 30.7148 246.156 30.9039C246.774 31.3081 247.501 31.5071 248.236 31.4731C249.341 31.5228 250.42 31.1301 251.241 30.3803C251.629 30.0131 251.935 29.5668 252.14 29.071C252.345 28.5752 252.443 28.0411 252.428 27.5041Z" fill="white"/>
</g>
<defs>
<clipPath id="clip0_64_866">
<rect width="270" height="50" rx="4" fill="white"/>
</clipPath>
</defs>
</svg>
